<svg width="73" height="20" viewBox="0 0 73 20" fill="none" xmlns="http://www.w3.org/2000/svg">
<rect width="0.639851" height="9.63336" transform="matrix(0.782552 0.622585 -0.782552 0.622585 7.53857 4)" fill="white"/>
<rect width="0.627522" height="9.59777" transform="matrix(-0.782552 0.622585 -0.782552 -0.622585 8.03931 15.6094)" fill="white"/>
<path d="M25.2942 14.71V3.45996C25.2942 3.37207 25.3206 3.30176 25.3733 3.24902C25.426 3.19629 25.4963 3.16992 25.5842 3.16992H25.9446C26.1321 3.16992 26.2258 3.2666 26.2258 3.45996V8.5752H33.4504V3.45996C33.4504 3.2666 33.5442 3.16992 33.7317 3.16992H34.092C34.1799 3.16992 34.2502 3.19629 34.303 3.24902C34.3557 3.30176 34.3821 3.37207 34.3821 3.45996V14.71C34.3821 14.7979 34.3557 14.8682 34.303 14.9209C34.2502 14.9736 34.1799 15 34.092 15H33.7317C33.5442 15 33.4504 14.9033 33.4504 14.71V9.47168H26.2258V14.71C26.2258 14.9033 26.1321 15 25.9446 15H25.5842C25.4963 15 25.426 14.9736 25.3733 14.9209C25.3206 14.8682 25.2942 14.7979 25.2942 14.71ZM37.1946 12.7852C37.1946 12.3457 37.2708 11.9531 37.4231 11.6074C37.5754 11.2559 37.7776 10.9717 38.0295 10.7549C38.2815 10.5381 38.5803 10.3594 38.926 10.2188C39.2717 10.0723 39.6233 9.97266 39.9807 9.91992C40.344 9.86133 40.7278 9.83203 41.1321 9.83203C41.677 9.83203 42.3918 9.92285 43.2766 10.1045V8.84766C43.2766 8.50781 43.2092 8.21484 43.0745 7.96875C42.9456 7.7168 42.7668 7.52051 42.5383 7.37988C42.3098 7.23926 42.0579 7.13672 41.7825 7.07227C41.5071 7.00781 41.2053 6.97559 40.8772 6.97559C40.344 6.97559 39.8254 7.04297 39.3215 7.17773C38.8176 7.30664 38.4016 7.47949 38.0735 7.69629C37.9856 7.74902 37.9182 7.74023 37.8713 7.66992C37.7893 7.54102 37.7483 7.40918 37.7483 7.27441C37.76 7.06348 37.8801 6.87598 38.1086 6.71191C38.343 6.54785 38.6301 6.4248 38.97 6.34277C39.3157 6.25488 39.6497 6.19043 39.9719 6.14941C40.3 6.1084 40.6018 6.08789 40.8772 6.08789C42.0549 6.08789 42.8958 6.33984 43.3997 6.84375C43.9036 7.34766 44.1555 8.05078 44.1555 8.95312V14.6748C44.1555 14.8916 44.0471 15 43.8303 15H43.6018C43.426 15 43.3293 14.8916 43.3118 14.6748L43.2415 13.7432C42.8547 14.2119 42.3538 14.5781 41.7385 14.8418C41.1233 15.1055 40.5198 15.2373 39.928 15.2373C39.4241 15.2373 38.9875 15.167 38.6184 15.0264C38.2493 14.8857 37.9651 14.6953 37.7659 14.4551C37.5667 14.209 37.4202 13.9482 37.3264 13.6729C37.2385 13.3975 37.1946 13.1016 37.1946 12.7852ZM38.0911 12.75C38.0911 13.1953 38.2346 13.5791 38.5217 13.9014C38.8147 14.2236 39.2893 14.3848 39.9456 14.3848C40.6194 14.3848 41.2786 14.1943 41.9231 13.8135C42.5676 13.4326 43.0188 12.9932 43.2766 12.4951V10.9834C42.7024 10.7549 41.9817 10.6406 41.1145 10.6406C40.7161 10.6406 40.344 10.6787 39.9983 10.7549C39.6526 10.8252 39.3333 10.9395 39.0403 11.0977C38.7473 11.2559 38.5159 11.4756 38.3459 11.7568C38.176 12.0381 38.0911 12.3691 38.0911 12.75ZM45.7463 14.1738L45.887 13.8486C45.9397 13.7256 46.0422 13.6963 46.1946 13.7607C47.009 14.1768 47.8733 14.3848 48.7874 14.3848C49.5081 14.3848 50.0735 14.2178 50.4836 13.8838C50.8997 13.5439 51.1077 13.0928 51.1077 12.5303C51.1077 11.5107 50.2786 11.001 48.6204 11.001H47.6008C47.4954 11.001 47.4163 10.9805 47.3635 10.9395C47.3167 10.8926 47.2932 10.8135 47.2932 10.7021V10.5C47.2932 10.3066 47.3958 10.21 47.6008 10.21H48.717C50.1409 10.21 50.8528 9.62988 50.8528 8.46973C50.8528 8.1709 50.7971 7.91895 50.6858 7.71387C50.5745 7.50293 50.4192 7.34473 50.22 7.23926C50.0208 7.12793 49.8127 7.04883 49.5959 7.00195C49.3792 6.95508 49.1389 6.93164 48.8752 6.93164C47.926 6.93164 47.0266 7.18652 46.177 7.69629C46.1184 7.72559 46.0745 7.71094 46.0452 7.65234C45.9866 7.53516 45.9573 7.41504 45.9573 7.29199C45.9573 7.02246 46.1213 6.79102 46.4495 6.59766C46.7776 6.39844 47.1555 6.25781 47.5833 6.17578C48.011 6.09375 48.4417 6.05273 48.8752 6.05273C49.8772 6.05273 50.6067 6.2666 51.0637 6.69434C51.5266 7.11621 51.7581 7.66406 51.7581 8.33789C51.7581 8.84766 51.6233 9.28711 51.3538 9.65625C51.0842 10.0254 50.7327 10.2949 50.2991 10.4648C50.885 10.5996 51.3186 10.8633 51.5999 11.2559C51.8811 11.6426 52.0217 12.0938 52.0217 12.6094C52.0217 13.3945 51.7375 14.0303 51.1692 14.5166C50.6067 14.9971 49.7688 15.2373 48.6555 15.2373C47.6594 15.2373 46.7249 14.9912 45.8518 14.499C45.7288 14.4287 45.6936 14.3203 45.7463 14.1738ZM53.6125 12.7852C53.6125 12.3457 53.6887 11.9531 53.8411 11.6074C53.9934 11.2559 54.1956 10.9717 54.4475 10.7549C54.6995 10.5381 54.9983 10.3594 55.344 10.2188C55.6897 10.0723 56.0413 9.97266 56.3987 9.91992C56.762 9.86133 57.1458 9.83203 57.55 9.83203C58.095 9.83203 58.8098 9.92285 59.6946 10.1045V8.84766C59.6946 8.50781 59.6272 8.21484 59.4924 7.96875C59.3635 7.7168 59.1848 7.52051 58.9563 7.37988C58.7278 7.23926 58.4758 7.13672 58.2004 7.07227C57.925 7.00781 57.6233 6.97559 57.2952 6.97559C56.762 6.97559 56.2434 7.04297 55.7395 7.17773C55.2356 7.30664 54.8196 7.47949 54.4915 7.69629C54.4036 7.74902 54.3362 7.74023 54.2893 7.66992C54.2073 7.54102 54.1663 7.40918 54.1663 7.27441C54.178 7.06348 54.2981 6.87598 54.5266 6.71191C54.761 6.54785 55.0481 6.4248 55.3879 6.34277C55.7336 6.25488 56.0676 6.19043 56.3899 6.14941C56.718 6.1084 57.0198 6.08789 57.2952 6.08789C58.4729 6.08789 59.3137 6.33984 59.8176 6.84375C60.3215 7.34766 60.5735 8.05078 60.5735 8.95312V14.6748C60.5735 14.8916 60.4651 15 60.2483 15H60.0198C59.844 15 59.7473 14.8916 59.7297 14.6748L59.6594 13.7432C59.2727 14.2119 58.7717 14.5781 58.1565 14.8418C57.5413 15.1055 56.9377 15.2373 56.3459 15.2373C55.842 15.2373 55.4055 15.167 55.0364 15.0264C54.6672 14.8857 54.3831 14.6953 54.1838 14.4551C53.9846 14.209 53.8381 13.9482 53.7444 13.6729C53.6565 13.3975 53.6125 13.1016 53.6125 12.7852ZM54.509 12.75C54.509 13.1953 54.6526 13.5791 54.9397 13.9014C55.2327 14.2236 55.7073 14.3848 56.3635 14.3848C57.0374 14.3848 57.6965 14.1943 58.3411 13.8135C58.9856 13.4326 59.4368 12.9932 59.6946 12.4951V10.9834C59.1204 10.7549 58.3997 10.6406 57.5325 10.6406C57.134 10.6406 56.762 10.6787 56.4163 10.7549C56.0706 10.8252 55.7512 10.9395 55.4583 11.0977C55.1653 11.2559 54.9338 11.4756 54.7639 11.7568C54.594 12.0381 54.509 12.3691 54.509 12.75ZM61.7864 14.499C61.7864 14.3877 61.8069 14.3057 61.8479 14.2529C61.8948 14.2002 61.9797 14.1738 62.1028 14.1738H62.718C63.0696 13.8223 63.3625 13.374 63.5969 12.8291C63.8313 12.2783 64.0012 11.6514 64.1067 10.9482C64.2122 10.2451 64.2795 9.55957 64.3088 8.8916C64.344 8.22363 64.3528 7.46484 64.3352 6.61523C64.3352 6.39844 64.4436 6.29004 64.6604 6.29004H69.7932C70.01 6.29004 70.1184 6.39844 70.1184 6.61523V14.1738H70.9446C71.1614 14.1738 71.2698 14.2822 71.2698 14.499V17.373C71.2698 17.5898 71.1614 17.6982 70.9446 17.6982H70.7249C70.6018 17.6982 70.5168 17.6719 70.47 17.6191C70.429 17.5664 70.4084 17.4844 70.4084 17.373V15H62.6477V17.373C62.6477 17.5898 62.5393 17.6982 62.3225 17.6982H62.1028C61.9797 17.6982 61.8948 17.6719 61.8479 17.6191C61.8069 17.5664 61.7864 17.4844 61.7864 17.373V14.499ZM63.7815 14.1738H69.2307V7.15137H65.1877C65.1877 7.91309 65.1702 8.58691 65.135 9.17285C65.1057 9.75879 65.0442 10.374 64.9504 11.0186C64.8625 11.6572 64.719 12.2432 64.5198 12.7764C64.3264 13.3096 64.0803 13.7754 63.7815 14.1738Z" fill="white"/>
</svg>
